<svg xmlns="http://www.w3.org/2000/svg" version="1.1" xmlns:xlink="http://www.w3.org/1999/xlink" xmlns:svgjs="http://svgjs.dev/svgjs" width="1500" height="1500" viewBox="0 0 1500 1500"><rect width="1500" height="1500" fill="#ffffff"></rect><g transform="matrix(0.6666666666666666,0,0,0.6666666666666666,249.78425655976667,249.78425655976673)"><svg viewBox="0 0 343 343" data-background-color="#ffffff" preserveAspectRatio="xMidYMid meet" height="1500" width="1500" xmlns="http://www.w3.org/2000/svg" xmlns:xlink="http://www.w3.org/1999/xlink"><g id="tight-bounds" transform="matrix(1,0,0,1,0.0740000000000407,0.07400000000001228)"><svg viewBox="0 0 342.85155851775386 342.85155851775386" height="342.85155851775386" width="342.85155851775386"><g><svg></svg></g><g><svg viewBox="0 0 342.85155851775386 342.85155851775386" height="342.85155851775386" width="342.85155851775386"><g><path d="M0 171.426c0-94.676 76.75-171.426 171.426-171.426 94.676 0 171.426 76.75 171.426 171.426 0 94.676-76.75 171.426-171.426 171.426-94.676 0-171.426-76.75-171.426-171.426zM171.426 338.238c92.128 0 166.812-74.684 166.812-166.812 0-92.128-74.684-166.812-166.812-166.813-92.128 0-166.812 74.684-166.813 166.813 0 92.128 74.684 166.812 166.813 166.812z" data-fill-palette-color="tertiary" fill="#000000" stroke="transparent"></path><ellipse rx="164.56874808852186" ry="164.56874808852186" cx="171.42577925887693" cy="171.42577925887693" fill="#000000" stroke="transparent" stroke-width="0" fill-opacity="1" data-fill-palette-color="tertiary"></ellipse></g><g transform="matrix(1,0,0,1,64.84655864529837,104.45797935796926)"><svg viewBox="0 0 213.1584412271571 133.93559980181533" height="133.93559980181533" width="213.1584412271571"><g><svg viewBox="0 0 213.1584412271571 133.93559980181533" height="133.93559980181533" width="213.1584412271571"><g><svg viewBox="0 0 213.1584412271571 133.93559980181533" height="133.93559980181533" width="213.1584412271571"><g transform="matrix(1,0,0,1,0,82.77757390729764)"><svg viewBox="0 0 213.1584412271571 51.158025894517706" height="51.158025894517706" width="213.1584412271571"><g id="textblocktransform"><svg viewBox="0 0 213.1584412271571 51.158025894517706" height="51.158025894517706" width="213.1584412271571" id="textblock"><g><svg viewBox="0 0 213.1584412271571 51.158025894517706" height="51.158025894517706" width="213.1584412271571"><g transform="matrix(1,0,0,1,0,0)"><svg width="213.1584412271571" viewBox="1 -39.6 181.24 43.5" height="51.158025894517706" data-palette-color="#ffffff"><path d="M1 0L1-8.2 3.5-8.2 3.5-30.65 1-30.65 1-38.9 21.3-38.9Q29.65-38.9 34.58-34.33 39.5-29.75 39.5-19.45L39.5-19.45Q39.5-9.15 34.58-4.58 29.65 0 21.3 0L21.3 0 1 0ZM17.5-8.2L20.4-8.2Q22.1-8.2 22.95-9.1 23.8-10 23.8-11.9L23.8-11.9 23.8-27Q23.8-30.7 20.4-30.7L20.4-30.7 17.5-30.7 17.5-8.2ZM79.9 3.9Q69.3 3.9 62.92 3.25 56.55 2.6 51.95 0.48 47.35-1.65 44.25-5.9L44.25-5.9Q40.9-10.75 40.9-19.45L40.9-19.45Q40.9-29.6 45.92-34.6 50.95-39.6 60-39.6L60-39.6Q69-39.6 74.05-35.18 79.1-30.75 79.1-21.95L79.1-21.95Q79.1-18.15 77.87-14.83 76.65-11.5 73.65-8.7L73.65-8.7 73.9-8.2 79.9-8.2 79.9 3.9ZM60-8.2Q63.4-8.2 63.4-11.9L63.4-11.9 63.4-27Q63.4-30.7 60-30.7L60-30.7Q56.6-30.7 56.6-27L56.6-27 56.6-11.9Q56.6-8.2 60-8.2L60-8.2ZM81.7 0L81.7-8.2 84.2-8.2 84.2-30.7 81.7-30.7 81.7-38.9 104.65-38.9Q110.9-38.9 114.4-36.35 117.9-33.8 117.9-29.05L117.9-29.05Q117.9-26.1 116.5-24.08 115.09-22.05 113.22-21.03 111.35-20 109.6-19.65L109.6-19.65 109.6-19.15Q113.15-18.8 116-16.9 118.84-15 118.84-10.1L118.84-10.1Q118.84-4.85 114.9-2.43 110.95 0 104.65 0L104.65 0 81.7 0ZM98.2-22.5L100.9-22.5Q102.35-22.5 103.07-23.28 103.8-24.05 103.8-25.7L103.8-25.7 103.8-27.5Q103.8-29.15 103.07-29.93 102.35-30.7 100.9-30.7L100.9-30.7 98.2-30.7 98.2-22.5ZM98.2-8.2L101.25-8.2Q102.7-8.2 103.42-8.97 104.15-9.75 104.15-11.4L104.15-11.4 104.15-13.6Q104.15-15.25 103.42-16.03 102.7-16.8 101.25-16.8L101.25-16.8 98.2-16.8 98.2-8.2ZM135.24 0.7Q128.14 0.7 124.14-3.03 120.14-6.75 120.14-13.9L120.14-13.9Q120.14-21.05 124.14-24.78 128.14-28.5 135.24-28.5L135.24-28.5Q142.44-28.5 146.39-24.73 150.34-20.95 150.34-13.9L150.34-13.9Q150.34-6.75 146.34-3.03 142.34 0.7 135.24 0.7L135.24 0.7ZM135.24-8.2Q136.69-8.2 137.42-8.97 138.14-9.75 138.14-11.4L138.14-11.4 138.14-16.4Q138.14-18.05 137.42-18.82 136.69-19.6 135.24-19.6L135.24-19.6Q133.79-19.6 133.07-18.82 132.34-18.05 132.34-16.4L132.34-16.4 132.34-11.4Q132.34-9.75 133.07-8.97 133.79-8.2 135.24-8.2L135.24-8.2ZM174.19-14.3L180.64-8.2 182.24-8.2 182.24 0 166.64 0 166.64-8.2 168.04-8.2 166.09-11.15 165.59-11.15 163.64-8.2 165.04-8.2 165.04 0 151.64 0 151.64-8.2 153.74-8.2 159.79-13.6 153.44-19.6 151.84-19.6 151.84-27.8 167.44-27.8 167.44-19.6 166.04-19.6 167.99-16.7 168.49-16.7 170.44-19.6 169.04-19.6 169.04-27.8 182.04-27.8 182.04-19.6 179.94-19.6 174.19-14.3Z" opacity="1" transform="matrix(1,0,0,1,0,0)" fill="#ffffff" class="wordmark-text-0" data-fill-palette-color="quaternary" id="text-0"></path></svg></g></svg></g></svg></g></svg></g><g transform="matrix(1,0,0,1,71.22902472046681,0)"><svg viewBox="0 0 70.70039178622349 70.70039178622348" height="70.70039178622348" width="70.70039178622349"><g><svg xmlns="http://www.w3.org/2000/svg" xmlns:xlink="http://www.w3.org/1999/xlink" version="1.1" x="0" y="0" viewBox="17.4 18.3 66.80000000000001 66.8" enable-background="new 0 0 100 100" xml:space="preserve" height="70.70039178622348" width="70.70039178622349" class="icon-icon-0" data-fill-palette-color="quaternary" id="icon-0"><g fill="#ffffff" data-fill-palette-color="quaternary"><path fill="#ffffff" d="M80.7 54.4H73.5V49H80.7C82.6 49 84.2 47.4 84.2 45.5S82.6 42 80.7 42H73.5V36.8C73.5 32.5 70 29 65.7 29H60.5V21.8C60.5 19.9 58.9 18.3 57 18.3S53.5 19.9 53.5 21.8V29H48.1V21.8C48.1 19.9 46.5 18.3 44.6 18.3S41.1 19.9 41.1 21.8V29H35.9C31.6 29 28.1 32.5 28.1 36.8V42H20.9C19 42 17.4 43.6 17.4 45.5S19 49 20.9 49H28.1V54.4H20.9C19 54.4 17.4 56 17.4 57.9S19 61.4 20.9 61.4H28.1V66.6C28.1 70.9 31.6 74.4 35.9 74.4H41.1V81.6C41.1 83.5 42.7 85.1 44.6 85.1S48.1 83.5 48.1 81.6V74.4H53.5V81.6C53.5 83.5 55.1 85.1 57 85.1S60.5 83.5 60.5 81.6V74.4H65.7C70 74.4 73.5 70.9 73.5 66.6V61.4H80.7C82.6 61.4 84.2 59.8 84.2 57.9S82.6 54.4 80.7 54.4M66.5 66.6C66.5 67 66.2 67.4 65.7 67.4H35.9C35.5 67.4 35.1 67.1 35.1 66.6V36.7C35.1 36.3 35.4 35.9 35.9 35.9H65.8C66.2 35.9 66.6 36.2 66.6 36.7V66.6z" data-fill-palette-color="quaternary"></path><path fill="#ffffff" d="M57.8 43.6H43.8C43.2 43.6 42.7 44.1 42.7 44.7V58.7C42.7 59.3 43.2 59.8 43.8 59.8H57.8C58.4 59.8 58.9 59.3 58.9 58.7V44.7C58.9 44 58.4 43.6 57.8 43.6" data-fill-palette-color="quaternary"></path></g></svg></g></svg></g><g></g></svg></g></svg></g></svg></g></svg></g><defs></defs></svg><rect width="342.85155851775386" height="342.85155851775386" fill="none" stroke="none" visibility="hidden"></rect></g></svg></g></svg>